<svg width="39" height="39" viewBox="0 0 39 39" fill="none" xmlns="http://www.w3.org/2000/svg">
<path d="M35.5113 11.7333H26.4338V2.51917C26.4338 1.13106 25.3098 0 23.9176 0H13.9843C12.5978 0 11.4681 1.12534 11.4681 2.51917V7.47182H15.3422V3.87872H22.554V22.5697H19.3703V26.4484H26.4281V15.612H34.1477V22.5697H30.285V26.4484H35.5056C36.892 26.4484 38.0217 25.3231 38.0217 23.9292V14.2524C38.0217 12.8643 36.8977 11.7333 35.5113 11.7333Z" fill="#247CFF"/>
<path d="M22.5597 34.1431H15.3479V15.6121H18.5887V11.7334H11.4738V22.5641H3.87406V15.6121H7.67396V11.7334H2.51614C1.12399 11.7334 0 12.8645 0 14.2526V23.9294C0 25.3175 1.12399 26.4485 2.51614 26.4485H11.4738V35.5084C11.4738 36.8965 12.5978 38.0276 13.99 38.0276H23.9233C25.3098 38.0276 26.4395 36.9022 26.4395 35.5084V30.2987H22.5654V34.1431H22.5597Z" fill="#247CFF"/>
</svg>
